PathFileType	4	(X/Y/Z)	Walk4.trc
DataRate	CameraRate	NumFrames	NumMarkers	Units	OrigDataRate	OrigDataStartFrame	OrigNumFrames
200.000000	200.000000	7	59	mm	200.000000	368	583
Frame#	Times		LFHD		RFHD		CLAV		STRN		LASI		RASI		RACR1		RUA1		RElbow		RFA1		RWRR		RWRU		RCAR		LACR1		LUA1		LElbow		LFA1		LWRR		LWRU		LCAR		RTH3		RTH2		RTB1		RTB2		LTH1		LTH3		LTH2		LLFC		LMFC		LTB1		LTB3		LTB2		LTB4		LMT1		LToe		LMT5		RTB4		RTB3		RMFC		LTH4		RTH4		RMT1		RElbowM		RLFC		LBHD		RToe		RMMAL		RTH1		RCAL		RBack		LLMAL		RPSI		C7		LElbowM		T10		LPSI		LMMAL		RBHD		LCAL
			X1	Y1	Z1	X2	Y2	Z2	X3	Y3	Z3	X4	Y4	Z4	X5	Y5	Z5	X6	Y6	Z6	X7	Y7	Z7	X8	Y8	Z8	X9	Y9	Z9	X10	Y10	Z10	X11	Y11	Z11	X12	Y12	Z12	X13	Y13	Z13	X14	Y14	Z14	X15	Y15	Z15	X16	Y16	Z16	X17	Y17	Z17	X18	Y18	Z18	X19	Y19	Z19	X20	Y20	Z20	X21	Y21	Z21	X22	Y22	Z22	X23	Y23	Z23	X24	Y24	Z24	X25	Y25	Z25	X26	Y26	Z26	X27	Y27	Z27	X28	Y28	Z28	X29	Y29	Z29	X30	Y30	Z30	X31	Y31	Z31	X32	Y32	Z32	X33	Y33	Z33	X34	Y34	Z34	X35	Y35	Z35	X36	Y36	Z36	X37	Y37	Z37	X38	Y38	Z38	X39	Y39	Z39	X40	Y40	Z40	X41	Y41	Z41	X42	Y42	Z42	X43	Y43	Z43	X44	Y44	Z44	X45	Y45	Z45	X46	Y46	Z46	X47	Y47	Z47	X48	Y48	Z48	X49	Y49	Z49	X50	Y50	Z50	X51	Y51	Z51	X52	Y52	Z52	X53	Y53	Z53	X54	Y54	Z54	X55	Y55	Z55	X56	Y56	Z56	X57	Y57	Z57	X58	Y58	Z58	X59	Y59	Z59

368	1.84	225.21	1630.4	-43.657	225.19	1632.1	55.745	233.83	1370.2	13.838	301.7	1213.4	4.7276	154.46	962.38	-179.06	224.51	943.98	181.89	119.88	1449.3	187.82	72.688	1285.9	301.85	60.73	1135.6	349.05	70.056	980.16	361.89	71.807	860.04	292.21	66.672	866.1	373.15	82.187	776.16	340.15	109.73	1434.8	-164.43	111.28	1265.4	-260.14	149.66	1111.5	-323.37	236.99	1004.6	-333.83	344.16	930.36	-273.6	315.38	890.01	-329.14	402.92	869.46	-307.26	278.06	612.36	190.26	280.99	717.62	186.94	393.46	401.97	104.2	384.79	310.05	155.06	42.153	731.56	-201.28	15.999	563.21	-183.92	86.542	640.45	-181.51	-24.522	484.94	-178.6	12.077	463.52	-26.085	-23.287	340.04	-116.24	-135.29	217.19	-72.954	-107.63	287.6	-145.48	-74.897	277.36	-93.532	-187.94	33.666	-57.682	-145.81	23.959	-103.14	-260.13	38.457	-122.09	400.56	315.73	95.869	407.41	230.22	87.671	288.37	501.61	30.457	28.66	648.52	-192.38	234.77	685.25	205.09	524.66	48.974	59.632	2.0367	1073.2	250.7	308.91	503.88	182.82	76.958	1548.7	-54.003	562.34	65.143	91.958	390.14	90.016	29.481	189.44	757.95	219.1	303.96	41.679	65.658	-25.235	1331.3	129.52	-302.71	144.79	-60.12	-60.689	993.67	70.816	37.523	1448.4	18.194	112.27	1029	-235.08	-23.052	1133.8	26.764	-66.373	1008.9	-12.724	-266.64	137.41	21.951	91.631	1557.1	94.052	-353.29	148.3	2.9836
369	1.845	231.73	1630.6	-42.196	231.76	1632.2	57.202	240.7	1370.5	15.117	308.74	1213.8	5.8559	162.12	962.57	-177.56	231.78	944.69	182.46	126.75	1449.1	189.21	79.884	1285.4	302.92	68.104	1135	349.86	77.41	979.5	362.56	79.068	859.44	292.77	74.008	865.44	373.72	89.444	775.51	340.64	116.52	1435.1	-163.13	117.05	1265.7	-258.94	154.53	1111.6	-322.3	241.27	1004.2	-333.03	348.19	929.38	-273.17	319.02	889.15	-328.6	406.54	868.16	-306.98	285.45	612.97	191.05	288.14	718.22	187.54	399.37	401.32	104.37	389.69	309.45	155.15	49.941	731.56	-201.16	24.288	563.04	-184.72	94.564	640.5	-181.7	-16.252	484.98	-179.74	20.588	462.9	-27.222	-16.557	340.2	-117.65	-130.16	218.91	-74.175	-101.78	289.13	-146.66	-69.049	278.25	-94.851	-187.58	33.486	-57.342	-146.35	23.825	-102.93	-259.06	40.184	-121.84	405.31	314.99	95.9	410.98	229.42	87.551	295.74	502.67	30.841	36.732	648.46	-192.78	242.02	685.79	205.79	525.68	46	59.019	9.4696	1072.7	251.46	316.14	504.04	183.44	83.569	1548.8	-52.525	563.96	61.517	91.045	391.45	89.5	29.211	196.57	758.44	219.73	304.71	42.361	65.765	-18.324	1331.2	130.76	-298.57	148.93	-60.836	-53.633	993.62	71.377	44.422	1448.6	19.634	116.89	1029.3	-233.95	-16.178	1133.8	27.289	-59.309	1008.6	-12.467	-262.27	140.95	21.026	98.355	1557	95.545	-348.37	153.83	2.4166
370	1.85	238.24	1630.9	-40.75	238.31	1632.4	58.645	247.54	1370.7	16.37	315.72	1214.2	6.9604	169.75	962.81	-176.05	239	945.51	183.09	133.6	1448.9	190.56	87.088	1284.9	303.97	75.505	1134.5	350.65	84.826	978.96	363.21	86.409	858.96	293.33	81.434	864.89	374.28	96.803	774.98	341.14	123.3	1435.4	-161.83	122.83	1266	-257.74	159.36	1111.8	-321.2	245.43	1003.9	-332.21	352.07	928.36	-272.73	322.49	888.28	-328.06	409.97	866.8	-306.72	292.58	613.47	191.83	295.18	718.72	188.19	405.1	400.62	104.5	394.39	308.8	155.18	57.865	731.62	-201.06	32.816	562.9	-185.6	102.77	640.62	-181.93	-7.7025	485.05	-180.97	29.429	462.28	-28.456	-9.5238	340.44	-119.17	-124.68	220.71	-75.512	-95.628	290.75	-147.93	-62.866	279.22	-96.294	-187.09	33.364	-56.995	-146.84	23.649	-102.74	-257.77	42.084	-121.61	409.89	314.23	95.871	414.38	228.61	87.345	303.18	503.69	31.103	44.992	648.45	-193.24	249.11	686.27	206.5	526.58	43.244	58.344	16.936	1072.3	252.22	323.11	504.06	184.01	90.156	1548.9	-51.061	565.45	58.137	90.068	392.63	89.006	28.865	203.64	758.92	220.4	305.41	42.991	65.821	-11.442	1331.2	131.98	-294.05	153.17	-61.603	-46.606	993.62	71.939	51.287	1448.9	21.031	121.36	1029.6	-232.83	-9.3271	1133.9	27.834	-52.257	1008.4	-12.211	-257.5	144.56	20.034	105.06	1557	97.022	-342.98	159.49	1.8208
371	1.855	244.73	1631.3	-39.324	244.85	1632.7	60.068	254.34	1371.1	17.594	322.63	1214.7	8.037	177.35	963.11	-174.54	246.16	946.4	183.77	140.43	1448.9	191.88	94.299	1284.6	305.01	82.931	1134.1	351.42	92.304	978.54	363.86	93.829	858.59	293.88	88.949	864.46	374.84	104.26	774.56	341.62	130.06	1435.9	-160.55	128.63	1266.5	-256.55	164.14	1112.1	-320.09	249.49	1003.6	-331.39	355.8	927.3	-272.3	325.79	887.4	-327.51	413.22	865.37	-306.46	299.43	613.83	192.57	302.09	719.07	188.9	410.62	399.9	104.57	398.9	308.11	155.11	65.918	731.73	-200.98	41.573	562.81	-186.55	111.16	640.82	-182.19	1.1183	485.17	-182.26	38.598	461.67	-29.779	-2.1874	340.75	-120.8	-118.85	222.58	-76.951	-89.162	292.47	-149.28	-56.338	280.27	-97.849	-186.46	33.323	-56.655	-147.24	23.428	-102.59	-256.22	44.164	-121.39	414.27	313.46	95.759	417.61	227.81	87.037	310.62	504.62	31.253	53.433	648.49	-193.75	256.01	686.65	207.21	527.37	40.702	57.619	24.428	1072	252.97	329.8	503.96	184.52	96.713	1549.2	-49.616	566.82	54.994	89.044	393.7	88.522	28.441	210.61	759.36	221.1	306.06	43.566	65.824	-4.5898	1331.3	133.19	-289.14	157.51	-62.419	-39.612	993.66	72.51	58.108	1449.2	22.386	125.69	1030.1	-231.7	-2.5021	1134	28.407	-45.218	1008.1	-11.938	-252.32	148.22	18.979	111.75	1557.1	98.479	-337.12	165.23	1.1938
372	1.86	251.2	1631.8	-37.923	251.38	1633	61.467	261.1	1371.5	18.788	329.46	1215.2	9.0831	184.9	963.46	-173.02	253.24	947.37	184.5	147.23	1449	193.15	101.51	1284.4	306.04	90.377	1133.8	352.17	99.839	978.23	364.5	101.32	858.34	294.43	96.551	864.16	375.4	111.83	774.27	342.11	136.78	1436.4	-159.29	134.44	1267	-255.37	168.88	1112.4	-318.95	253.46	1003.3	-330.56	359.39	926.22	-271.85	328.93	886.52	-326.97	416.27	863.88	-306.2	305.99	614.03	193.25	308.84	719.27	189.66	415.93	399.13	104.55	403.22	307.38	154.94	74.095	731.9	-200.92	50.547	562.76	-187.55	119.71	641.1	-182.48	10.201	485.32	-183.62	48.085	461.07	-31.177	5.4515	341.13	-122.52	-112.66	224.51	-78.478	-82.374	294.28	-150.71	-49.459	281.38	-99.497	-185.63	33.386	-56.337	-147.49	23.164	-102.48	-254.36	46.432	-121.2	418.46	312.66	95.552	420.66	226.99	86.624	317.98	505.44	31.304	62.044	648.58	-194.3	262.7	686.92	207.9	528.07	38.375	56.862	31.935	1071.7	253.73	336.21	503.74	184.96	103.24	1549.5	-48.194	568.07	52.083	87.997	394.66	88.04	27.947	217.46	759.73	221.8	306.65	44.086	65.773	2.2323	1331.4	134.38	-283.82	161.9	-63.284	-32.658	993.77	73.096	64.871	1449.5	23.7	129.94	1030.6	-230.56	4.2954	1134.2	29.016	-38.196	1008	-11.631	-246.71	151.92	17.868	118.41	1557.3	99.911	-330.8	171.03	0.53323
373	1.865	257.64	1632.3	-36.553	257.88	1633.4	62.836	267.81	1372	19.95	336.23	1215.8	10.097	192.4	963.86	-171.51	260.26	948.37	185.29	154	1449.2	194.4	108.72	1284.3	307.05	97.843	1133.6	352.91	107.43	978.04	365.14	108.89	858.2	294.97	104.24	863.97	375.94	119.49	774.09	342.59	143.46	1437	-158.04	140.26	1267.6	-254.21	173.59	1112.8	-317.8	257.33	1003.1	-329.72	362.84	925.1	-271.41	331.92	885.64	-326.43	419.15	862.33	-305.94	312.26	614.07	193.87	315.44	719.31	190.47	421.01	398.34	104.42	407.36	306.62	154.68	82.384	732.12	-200.88	59.725	562.76	-188.6	128.41	641.45	-182.79	19.534	485.5	-185.01	57.874	460.5	-32.632	13.391	341.58	-124.3	-106.11	226.5	-80.07	-75.254	296.14	-152.19	-42.226	282.56	-101.21	-184.57	33.581	-56.061	-147.55	22.858	-102.44	-252.14	48.892	-121.04	422.45	311.85	95.245	423.54	226.18	86.111	325.2	506.11	31.273	70.815	648.72	-194.89	269.18	687.05	208.54	528.68	36.261	56.09	39.449	1071.6	254.48	342.35	503.43	185.32	109.72	1549.9	-46.796	569.21	49.398	86.951	395.52	87.554	27.395	224.17	760.01	222.5	307.19	44.552	65.673	9.0233	1331.6	135.56	-278.1	166.34	-64.194	-25.748	993.93	73.706	71.571	1449.9	24.974	134.12	1031.2	-229.4	11.064	1134.4	29.667	-31.198	1007.9	-11.274	-240.68	155.64	16.71	125.05	1557.5	101.31	-324.03	176.85	-0.1628
374	1.87	264.05	1632.8	-35.217	264.36	1633.9	64.171	274.47	1372.5	21.077	342.92	1216.4	11.077	199.85	964.3	-170.01	267.2	949.4	186.13	160.74	1449.5	195.6	115.93	1284.3	308.06	105.32	1133.6	353.63	115.07	977.96	365.76	116.53	858.18	295.5	112.01	863.89	376.48	127.25	774.03	343.06	150.08	1437.7	-156.81	146.09	1268.2	-253.06	178.27	1113.3	-316.63	261.11	1002.9	-328.88	366.16	923.95	-270.96	334.77	884.75	-325.9	421.86	860.72	-305.68	318.25	613.95	194.41	321.88	719.19	191.29	425.86	397.52	104.18	411.32	305.84	154.32	90.776	732.39	-200.85	69.094	562.8	-189.68	137.26	641.89	-183.12	29.106	485.73	-186.42	67.946	459.99	-34.122	21.627	342.09	-126.12	-99.202	228.53	-81.702	-67.795	298.06	-153.71	-34.645	283.79	-102.97	-183.21	33.934	-55.85	-147.35	22.521	-102.47	-249.53	51.55	-120.94	426.23	311.02	94.841	426.24	225.36	85.515	332.2	506.63	31.176	79.732	648.9	-195.49	275.45	687.07	209.13	529.21	34.358	55.319	46.962	1071.6	255.24	348.21	503.03	185.61	116.17	1550.3	-45.427	570.25	46.936	85.928	396.29	87.064	26.798	230.74	760.2	223.19	307.68	44.966	65.53	15.783	1331.8	136.73	-271.97	170.8	-65.145	-18.889	994.15	74.345	78.2	1450.4	26.21	138.28	1031.9	-228.2	17.801	1134.8	30.363	-24.233	1007.8	-10.856	-234.24	159.37	15.516	131.65	1557.9	102.68	-316.83	182.65	-0.8943
